<svg width="20" height="31" viewBox="0 0 20 31" fill="none" xmlns="http://www.w3.org/2000/svg">
<g id="Group">
<path id="Vector" d="M13.4037 4.16304V4.46062C13.4037 4.65901 13.2425 4.8171 13.0472 4.8171H6.72046C6.52207 4.8171 6.36398 4.65591 6.36398 4.46062V4.16304H2.01184V29.1909H17.9976V4.16304H13.4037ZM6.72046 26.3825H4.26851C4.07012 26.3825 3.90893 26.2213 3.90893 26.026C3.90893 25.8276 4.07012 25.6665 4.26851 25.6665H6.72046C6.91885 25.6665 7.08004 25.8276 7.08004 26.026C7.07694 26.2213 6.91885 26.3825 6.72046 26.3825ZM6.72046 22.9355H4.26851C4.07012 22.9355 3.90893 22.7743 3.90893 22.579C3.90893 22.3837 4.07012 22.2226 4.26851 22.2226H6.72046C6.91885 22.2226 7.08004 22.3837 7.08004 22.579C7.08004 22.7743 6.91885 22.9355 6.72046 22.9355ZM6.72046 19.4916H4.26851C4.07012 19.4916 3.90893 19.3304 3.90893 19.132C3.90893 18.9337 4.07012 18.7756 4.26851 18.7756H6.72046C6.91885 18.7756 7.08004 18.9368 7.08004 19.132C7.07694 19.3304 6.91885 19.4916 6.72046 19.4916ZM6.72046 16.0446H4.26851C4.07012 16.0446 3.90893 15.8834 3.90893 15.6881C3.90893 15.4898 4.07012 15.3286 4.26851 15.3286H6.72046C6.91885 15.3286 7.08004 15.4898 7.08004 15.6881C7.07694 15.8834 6.91885 16.0446 6.72046 16.0446ZM15.7316 26.3825H9.09182C8.89343 26.3825 8.73534 26.2213 8.73534 26.026C8.73534 25.8276 8.89653 25.6665 9.09182 25.6665H15.7347C15.9331 25.6665 16.0943 25.8276 16.0943 26.026C16.0912 26.2213 15.93 26.3825 15.7316 26.3825ZM15.7316 22.9355H9.09182C8.89343 22.9355 8.73534 22.7743 8.73534 22.579C8.73534 22.3837 8.89653 22.2226 9.09182 22.2226H15.7347C15.9331 22.2226 16.0943 22.3837 16.0943 22.579C16.0943 22.7743 15.93 22.9355 15.7316 22.9355ZM15.7316 19.4916H9.09182C8.89343 19.4916 8.73534 19.3304 8.73534 19.132C8.73534 18.9337 8.89653 18.7756 9.09182 18.7756H15.7347C15.9331 18.7756 16.0943 18.9368 16.0943 19.132C16.0912 19.3304 15.93 19.4916 15.7316 19.4916ZM15.7316 16.0446H9.09182C8.89343 16.0446 8.73534 15.8834 8.73534 15.6881C8.73534 15.4898 8.89653 15.3286 9.09182 15.3286H15.7347C15.9331 15.3286 16.0943 15.4898 16.0943 15.6881C16.0912 15.8834 15.93 16.0446 15.7316 16.0446ZM16.0912 12.7092C16.0912 12.9076 15.93 13.0688 15.7316 13.0688H4.26851C4.07012 13.0688 3.90893 12.9076 3.90893 12.7092V6.91567C3.90893 6.71729 4.07012 6.5592 4.26851 6.5592H15.7347C15.9331 6.5592 16.0943 6.72039 16.0943 6.91567V12.7092H16.0912Z" fill="#FF98B0"/>
<path id="Vector_2" d="M15.375 7.27229H4.62488V12.3498H15.375V7.27229Z" fill="#FF98B0"/>
<path id="Vector_3" d="M20 2.64726V30.9982H0V2.64726H6.36082V3.44701H1.6553C1.45691 3.44701 1.29572 3.60821 1.29572 3.80349V29.5474C1.29572 29.7458 1.45691 29.9039 1.6553 29.9039H18.3571C18.5555 29.9039 18.7167 29.7427 18.7167 29.5474V3.80349C18.7167 3.60511 18.5555 3.44701 18.3571 3.44701H13.4036V2.64726H20Z" fill="#FF98B0"/>
<path id="Vector_4" d="M12.6877 1.32362V4.10105H7.07703V1.32362H8.58664C8.78502 1.32362 8.94621 1.16243 8.94621 0.967142C8.94621 0.433974 9.38019 0 9.91026 0C10.4434 0 10.8743 0.433974 10.8743 0.964042C10.8743 1.16243 11.0355 1.32052 11.2308 1.32052H12.6877V1.32362Z" fill="#FF98B0"/>
</g>
</svg>
