<svg width="30" height="27" viewBox="0 0 30 27" fill="none" xmlns="http://www.w3.org/2000/svg">
<g id="Group 36154">
<path id="Vector" d="M28.1508 15.205C27.8302 15.3555 27.4808 15.4347 27.1267 15.4369C26.7709 15.434 26.42 15.3526 26.0993 15.1983V21.0907C26.0993 21.554 25.9153 21.9982 25.5878 22.3257C25.2603 22.6533 24.816 22.8373 24.3528 22.8373H20.0744C19.6112 22.8373 19.1669 22.6533 18.8394 22.3257C18.5119 21.9982 18.3278 21.554 18.3278 21.0907V16.1926C17.6948 16.823 17.0121 17.4015 16.2864 17.9225V21.0974C16.2864 22.1026 16.6853 23.0668 17.3954 23.7782C18.1056 24.4897 19.0691 24.8902 20.0744 24.892H24.3528C25.3595 24.892 26.325 24.4923 27.0372 23.7808C27.7493 23.0692 28.1499 22.1041 28.1508 21.0974V15.205Z" fill="#FF6D61"/>
<path id="Vector_2" d="M27.1268 6.21057C25.5427 6.21057 24.2568 8.50059 24.2568 10.7276C24.2568 12.9547 25.5427 14.9398 27.1268 14.9398C28.7109 14.9398 30.0001 12.9514 30.0001 10.7276C30.0001 8.50391 28.7143 6.21057 27.1268 6.21057Z" fill="#FF6D61"/>
<path id="Vector_3" d="M11.2954 3.47977C11.2954 3.47977 9.11473 0 5.60513 0C4.59478 0.0183375 3.60496 0.28829 2.7252 0.785435C-1.07273 2.79708 -0.684981 8.60664 2.55287 13.3789C3.60071 12.6093 4.83453 12.1324 6.12762 11.9973C7.42071 11.8622 8.72646 12.0738 9.91074 12.6103C11.095 13.1467 12.1152 13.9888 12.8664 15.0499C13.6176 16.111 14.0728 17.353 14.1853 18.6483C22.1092 14.4692 25.3437 3.66868 19.8623 0.785435C18.982 0.294474 17.9935 0.0302491 16.9856 0.0165704C13.476 6.2964e-08 11.2954 3.47977 11.2954 3.47977Z" fill="#FF6D61"/>
<path id="Vector_4" d="M6.88088 12.4244C5.52866 12.4244 4.20681 12.8254 3.08248 13.5767C1.95816 14.3279 1.08185 15.3957 0.564378 16.645C0.0469077 17.8943 -0.0884863 19.269 0.175318 20.5952C0.439122 21.9214 1.09028 23.1396 2.04644 24.0958C3.0026 25.052 4.22082 25.7031 5.54706 25.9669C6.87329 26.2307 8.24797 26.0953 9.49726 25.5779C10.7465 25.0604 11.8143 24.1841 12.5656 23.0598C13.3168 21.9354 13.7178 20.6136 13.7178 19.2614C13.7178 17.4481 12.9975 15.7091 11.7153 14.4269C10.4331 13.1448 8.69414 12.4244 6.88088 12.4244ZM6.88088 24.3915C5.86636 24.3909 4.87482 24.0895 4.0316 23.5253C3.18839 22.9612 2.53135 22.1598 2.14357 21.2223C1.75579 20.2848 1.65466 19.2534 1.85299 18.2585C2.05131 17.2635 2.54017 16.3497 3.25778 15.6326C3.97538 14.9155 4.88949 14.4272 5.88456 14.2295C6.87963 14.0318 7.91097 14.1336 8.84819 14.522C9.78542 14.9104 10.5864 15.568 11.15 16.4115C11.7136 17.2551 12.0144 18.2469 12.0144 19.2614C12.0126 20.622 11.4711 21.9264 10.5087 22.8882C9.54623 23.85 8.24152 24.3907 6.88088 24.3915Z" fill="#6F6F6F"/>
<path id="Vector_5" d="M11.5174 19.2614C11.5174 18.3438 11.2453 17.4467 10.7355 16.6837C10.2257 15.9207 9.50107 15.3261 8.65327 14.9749C7.80548 14.6237 6.87259 14.5318 5.97258 14.7109C5.07256 14.8899 4.24585 15.3318 3.59698 15.9806C2.9481 16.6295 2.50621 17.4562 2.32719 18.3562C2.14817 19.2563 2.24005 20.1891 2.59122 21.0369C2.94238 21.8847 3.53706 22.6094 4.30006 23.1192C5.06305 23.629 5.96009 23.9011 6.87774 23.9011C8.10826 23.9011 9.28839 23.4123 10.1585 22.5422C11.0286 21.6721 11.5174 20.4919 11.5174 19.2614ZM6.87774 20.587C6.52616 20.6196 6.17606 20.5111 5.90446 20.2855C5.63286 20.0599 5.46201 19.7356 5.42949 19.384C5.39697 19.0324 5.50544 18.6824 5.73105 18.4108C5.95666 18.1392 6.28092 17.9683 6.6325 17.9358V16.123C6.63206 16.0905 6.63808 16.0583 6.65021 16.0281C6.66233 15.998 6.68033 15.9705 6.70314 15.9474C6.72596 15.9243 6.75314 15.9059 6.78312 15.8934C6.81309 15.8809 6.84525 15.8744 6.87774 15.8744C6.91066 15.874 6.94333 15.8801 6.97387 15.8924C7.00441 15.9047 7.03221 15.9229 7.05564 15.946C7.07907 15.9692 7.09768 15.9967 7.11038 16.0271C7.12307 16.0575 7.12961 16.0901 7.12961 16.123V17.949C7.45618 18.0119 7.74717 18.1953 7.94487 18.4627L8.77007 18.0617C8.82901 18.033 8.8969 18.0287 8.95897 18.0498C9.02105 18.0709 9.07227 18.1157 9.10148 18.1744C9.12908 18.2339 9.13241 18.3018 9.11075 18.3636C9.08909 18.4255 9.04415 18.4765 8.98549 18.5058L8.16691 18.9101C8.19981 19.0244 8.21764 19.1425 8.21994 19.2614C8.22127 19.4374 8.18752 19.612 8.12066 19.7748C8.05381 19.9377 7.95518 20.0856 7.83054 20.2099C7.70591 20.3343 7.55776 20.4325 7.39473 20.499C7.23171 20.5654 7.05709 20.5987 6.88105 20.597L6.87774 20.587Z" fill="#6F6F6F"/>
<path id="Vector_6" d="M6.88436 20.0998C7.34743 20.0998 7.72282 19.7245 7.72282 19.2614C7.72282 18.7983 7.34743 18.4229 6.88436 18.4229C6.42129 18.4229 6.0459 18.7983 6.0459 19.2614C6.0459 19.7245 6.42129 20.0998 6.88436 20.0998Z" fill="#6F6F6F"/>
</g>
</svg>
