<svg width="25" height="26" viewBox="0 0 25 26" fill="none" xmlns="http://www.w3.org/2000/svg">
<g id="Group">
<path id="Vector" d="M23.2527 0H1.74731C0.782303 0 0 0.782303 0 1.74731V23.7903C0 24.7553 0.782303 25.5376 1.74731 25.5376H23.2527C24.2177 25.5376 25 24.7553 25 23.7903V1.74731C25 0.782303 24.2177 0 23.2527 0ZM24.7312 23.7903C24.7312 24.6067 24.0691 25.2688 23.2527 25.2688H1.74731C0.930623 25.2688 0.268817 24.6067 0.268817 23.7903V1.74731C0.268817 0.930623 0.930623 0.268817 1.74731 0.268817H23.2527C24.0691 0.268817 24.7312 0.930623 24.7312 1.74731V23.7903Z" fill="#CA92BF"/>
<path id="Vector_2" d="M22.0587 1.34409H14.6489V3.40563C16.2618 4.19781 17.1648 5.75621 17.1648 7.54586C17.1648 10.1352 15.0898 12.2419 12.5004 12.2419C9.9108 12.2419 7.82411 10.1352 7.82411 7.54586C7.82411 5.75585 8.73486 4.19752 10.3479 3.40563V1.34409H2.90341C2.01627 1.34409 1.20825 2.13706 1.20825 3.0242V22.8058C1.20825 23.6929 2.01627 24.4623 2.90341 24.4623H22.0589C22.9458 24.4623 23.7889 23.6929 23.7889 22.8058V3.0242C23.7889 2.13706 22.9456 1.34409 22.0589 1.34409H22.0587Z" fill="#CA92BF"/>
<path id="Vector_3" d="M12.2377 8.25512V11.5591H12.7753V8.25512C13.0441 8.14626 13.2581 7.87098 13.2581 7.54598C13.2581 7.12578 12.9137 6.78572 12.4933 6.78572C12.0731 6.78572 11.7395 7.12578 11.7395 7.54598C11.7396 7.87125 11.9688 8.14654 12.2377 8.25512Z" fill="#CA92BF"/>
<path id="Vector_4" d="M15.3535 7.66129C15.3535 7.7355 15.414 7.7957 15.4879 7.7957H16.5594C16.6334 7.7957 16.6938 7.7355 16.6938 7.66129C16.6938 7.58709 16.6334 7.52689 16.5594 7.52689H15.4879C15.4138 7.52689 15.3535 7.58709 15.3535 7.66129Z" fill="#CA92BF"/>
<path id="Vector_5" d="M9.64401 7.66129C9.64401 7.58709 9.5838 7.52689 9.5096 7.52689H8.43836C8.36416 7.52689 8.30396 7.58709 8.30396 7.66129C8.30396 7.7355 8.36416 7.7957 8.43836 7.7957H9.5096C9.5838 7.7957 9.64401 7.7355 9.64401 7.66129Z" fill="#CA92BF"/>
<path id="Vector_6" d="M12.4989 4.69151C12.5731 4.69151 12.6333 4.63131 12.6333 4.5571V3.48586C12.6333 3.41166 12.5731 3.35146 12.4989 3.35146C12.4247 3.35146 12.3645 3.41166 12.3645 3.48586V4.5571C12.3645 4.63148 12.4244 4.69151 12.4989 4.69151Z" fill="#CA92BF"/>
<path id="Vector_7" d="M14.612 5.56721C14.6464 5.56721 14.6808 5.55399 14.7072 5.52792L15.4652 4.77039C15.5176 4.71797 15.5176 4.63274 15.4652 4.58033C15.4128 4.52791 15.3276 4.52791 15.2752 4.58033L14.5171 5.33785C14.4647 5.39027 14.4647 5.4755 14.5171 5.52792C14.5432 5.55408 14.5776 5.56721 14.612 5.56721Z" fill="#CA92BF"/>
<path id="Vector_8" d="M9.62742 10.5513C9.66181 10.5513 9.6962 10.5381 9.72254 10.512L10.4806 9.75447C10.533 9.70205 10.533 9.61682 10.4806 9.5644C10.4282 9.51199 10.343 9.51199 10.2905 9.5644L9.53248 10.3219C9.48006 10.3743 9.48006 10.4596 9.53248 10.512C9.55855 10.5384 9.59303 10.5513 9.62742 10.5513Z" fill="#CA92BF"/>
<path id="Vector_9" d="M15.2746 10.5128C15.3009 10.5391 15.3353 10.5521 15.3697 10.5521C15.4041 10.5521 15.4385 10.5389 15.4648 10.5128C15.5172 10.4604 15.5172 10.3752 15.4648 10.3227L14.7073 9.56468C14.6549 9.51226 14.5696 9.51226 14.5172 9.56468C14.4648 9.61709 14.4648 9.70232 14.5172 9.75474L15.2746 10.5128Z" fill="#CA92BF"/>
<path id="Vector_10" d="M9.53272 4.57956C9.4803 4.63198 9.4803 4.71721 9.53272 4.76963L10.2902 5.52769C10.3166 5.55403 10.351 5.56698 10.3854 5.56698C10.4198 5.56698 10.4541 5.55377 10.4805 5.52769C10.5329 5.47528 10.5329 5.39005 10.4805 5.33763L9.72296 4.57956C9.67037 4.52715 9.58522 4.52715 9.53272 4.57956Z" fill="#CA92BF"/>
</g>
</svg>
