<svg width="25" height="25" viewBox="0 0 25 25" fill="none" xmlns="http://www.w3.org/2000/svg">
<g id="Group">
<path id="Vector" d="M19.0789 0H5.92105C4.35144 0.00243594 2.84681 0.627042 1.73693 1.73693C0.627042 2.84681 0.00243594 4.35144 0 5.92105V19.0789C0.00243594 20.6486 0.627042 22.1532 1.73693 23.2631C2.84681 24.373 4.35144 24.9976 5.92105 25H19.0789C20.6486 24.9976 22.1532 24.373 23.2631 23.2631C24.373 22.1532 24.9976 20.6486 25 19.0789V5.92105C24.9976 4.35144 24.373 2.84681 23.2631 1.73693C22.1532 0.627042 20.6486 0.00243594 19.0789 0ZM20.1053 13.1579H16.6053L14.3947 17.5132C14.3412 17.6207 14.2586 17.711 14.1562 17.7738C14.0538 17.8366 13.9359 17.8694 13.8158 17.8684H13.7763C13.6488 17.864 13.5256 17.8215 13.4224 17.7465C13.3192 17.6715 13.2409 17.5673 13.1974 17.4474L10.5395 10.5921L9.36842 12.8026C9.31618 12.9112 9.23382 13.0024 9.13116 13.0654C9.0285 13.1283 8.90989 13.1605 8.78947 13.1579H4.89474C4.72025 13.1579 4.55291 13.0886 4.42953 12.9652C4.30616 12.8418 4.23684 12.6745 4.23684 12.5C4.23684 12.3255 4.30616 12.1582 4.42953 12.0348C4.55291 11.9114 4.72025 11.8421 4.89474 11.8421H8.39474L10.0526 8.71053C10.1089 8.5967 10.1977 8.50216 10.3078 8.43891C10.418 8.37566 10.5444 8.34654 10.6711 8.35526C10.7979 8.36206 10.9201 8.40544 11.0228 8.48015C11.1255 8.55487 11.2045 8.65773 11.25 8.77632L13.8947 15.6053L15.6184 12.1974C15.677 12.0911 15.7626 12.0023 15.8666 11.9399C15.9706 11.8775 16.0893 11.8438 16.2105 11.8421H20.1053C20.2797 11.8421 20.4471 11.9114 20.5705 12.0348C20.6938 12.1582 20.7632 12.3255 20.7632 12.5C20.7632 12.6745 20.6938 12.8418 20.5705 12.9652C20.4471 13.0886 20.2797 13.1579 20.1053 13.1579Z" fill="#00CDD0"/>
</g>
</svg>
