<svg width="25" height="29" viewBox="0 0 25 29" fill="none" xmlns="http://www.w3.org/2000/svg">
<g id="Group">
<path id="Vector" fill-rule="evenodd" clip-rule="evenodd" d="M6.6469 2.59133e-05C6.53518 -0.000208055 6.42458 0.0222422 6.32179 0.0660165C6.21901 0.109791 6.12618 0.173978 6.04893 0.254688C6.04893 0.254688 4.56455 1.83269 3.07684 3.83118C1.58915 5.82967 0 8.14543 0 10.2637C0 13.9565 2.98142 16.9831 6.6469 16.9831C10.3124 16.9831 13.2922 13.9565 13.2922 10.2637C13.2922 8.14543 11.7095 5.82967 10.2218 3.83118C8.73408 1.83269 7.2497 0.254688 7.2497 0.254688C7.17189 0.173385 7.07828 0.108854 6.97462 0.0650595C6.87095 0.0212654 6.75943 -0.000865806 6.6469 2.59133e-05ZM15.0216 2.63042C14.7962 2.63081 14.5807 2.72339 14.4252 2.8867C14.4252 2.8867 13.766 3.58611 12.8441 4.64029C13.9608 6.27889 14.9426 8.13977 14.9426 10.2637C14.9426 14.8444 11.2209 18.6336 6.6469 18.6336C6.09999 18.6336 5.5657 18.5772 5.04803 18.474C5.2449 23.7925 9.64435 28.0575 15.0216 28.0575C20.5236 28.0576 25 23.5935 25 18.1033C25 15.0824 22.5774 11.4625 20.255 8.38764C17.9325 5.31283 15.6196 2.8867 15.6196 2.8867C15.4637 2.72302 15.2476 2.63038 15.0216 2.63042ZM20.6257 16.7688C20.6686 16.766 20.7118 16.7665 20.7546 16.7704C20.9714 16.7897 21.1718 16.8938 21.3122 17.0601C21.4525 17.2265 21.5215 17.4415 21.5041 17.6585C21.2334 20.8202 19.2125 23.4905 16.4109 24.6712C16.2089 24.7551 15.9819 24.7554 15.7797 24.672C15.5776 24.5886 15.4168 24.4283 15.3327 24.2264C15.2484 24.0252 15.2472 23.7988 15.3294 23.5968C15.4115 23.3947 15.5703 23.2334 15.7711 23.1481C18.016 22.202 19.6407 20.0623 19.8585 17.5182C19.8761 17.3224 19.9631 17.1393 20.1037 17.0019C20.2444 16.8645 20.4295 16.7818 20.6257 16.7688Z" fill="#FAB120"/>
</g>
</svg>
