<svg width="30" height="31" viewBox="0 0 30 31" fill="none" xmlns="http://www.w3.org/2000/svg">
<g id="Group 36153">
<path id="Vector" d="M6.3988 5.5196H14.561C15.1032 5.5196 15.5428 5.07999 15.5428 4.5378V3.32642C15.5428 2.78422 15.1032 2.34461 14.561 2.34461H12.9246C12.8709 1.04531 11.8012 0 10.4774 0C9.1586 0 8.09375 1.04531 8.03514 2.34949H6.3988C5.85661 2.34949 5.41699 2.78911 5.41699 3.3313V4.54268C5.42188 5.07999 5.85661 5.5196 6.3988 5.5196ZM10.4823 1.30907C10.961 1.30907 11.3518 1.69984 11.3518 2.17853C11.3518 2.65722 10.9659 3.04799 10.4823 3.04799C9.99875 3.04799 9.61287 2.65722 9.61287 2.17853C9.61287 1.69984 9.99875 1.30907 10.4823 1.30907Z" fill="#78C2A5"/>
<path id="Vector_2" d="M5.42195 10.9806C3.91261 10.9806 2.68169 12.1431 2.55469 13.6231H8.2941C8.16221 12.1431 6.93618 10.9806 5.42195 10.9806Z" fill="#78C2A5"/>
<path id="Vector_3" d="M5.4756 10.7803C6.23272 10.7803 6.85306 9.7496 6.85306 8.9876C6.85306 8.23049 6.23272 7.61015 5.4756 7.61015C4.7136 7.61015 4.09814 8.23049 4.09814 8.9876C4.09814 9.75449 4.7136 10.7803 5.4756 10.7803Z" fill="#78C2A5"/>
<path id="Vector_4" d="M29.1023 19.7142C27.9055 18.5174 25.9615 18.5174 24.7599 19.7142L22.5227 21.9513L26.8651 26.2937L29.1023 24.0566C30.299 22.855 30.299 20.9158 29.1023 19.7142Z" fill="#78C2A5"/>
<path id="Vector_5" d="M19.431 25.0434C18.2343 26.2401 18.2343 28.1842 19.431 29.3858C20.6277 30.5825 22.5718 30.5825 23.7734 29.3858L26.1766 26.9826L21.8342 22.6401L19.431 25.0434Z" fill="#78C2A5"/>
<path id="Vector_6" d="M17.2671 16.5246C17.2671 18.5273 18.8839 20.1489 20.8866 20.1489C21.6535 20.1489 22.3764 19.9047 22.9625 19.4993L17.9167 14.4535C17.5064 15.0397 17.2671 15.7528 17.2671 16.5246Z" fill="#78C2A5"/>
<path id="Vector_7" d="M18.8154 13.5596L23.8612 18.6054C24.2715 18.0144 24.5109 17.3013 24.5109 16.5295C24.5109 14.5268 22.8892 12.91 20.8865 12.91C20.1147 12.9051 19.3967 13.1445 18.8154 13.5596Z" fill="#78C2A5"/>
<path id="Vector_8" d="M17.5553 27.2171C17.5553 26.1376 17.9753 25.1216 18.7422 24.3547L21.2236 21.8733V21.1015C21.1113 21.1113 20.9989 21.126 20.8866 21.126C18.3514 21.126 16.2901 19.0598 16.2901 16.5247C16.2901 15.5722 16.5783 14.6636 17.1205 13.8919C17.2524 13.7014 17.399 13.5255 17.5601 13.3595C17.5064 13.3839 17.4429 13.3936 17.3794 13.3936H10.4824C10.2137 13.3936 9.9939 13.1738 9.9939 12.9052C9.9939 12.6365 10.2137 12.4167 10.4824 12.4167H17.3794C17.6481 12.4167 17.8679 12.6365 17.8679 12.9052C17.8679 12.9736 17.8532 13.0371 17.8288 13.1006C17.9656 12.9785 18.1072 12.8612 18.2586 12.7538C19.0255 12.2165 19.9341 11.9283 20.8866 11.9283C20.9989 11.9283 21.1113 11.938 21.2236 11.9478V6.8727C21.2236 5.10936 19.7924 3.67817 18.0291 3.67817H16.5197V4.53786C16.5197 5.61736 15.6405 6.49659 14.561 6.49659H6.39883C5.31933 6.49659 4.44499 5.61736 4.44499 4.53786V3.67817H3.19453C1.43119 3.67817 0 5.10936 0 6.8727V27.0901C0 28.8534 1.43119 30.2846 3.19453 30.2846H18.0291C18.3124 30.2846 18.5859 30.2406 18.8448 30.1723C18.8106 30.1381 18.7715 30.1088 18.7422 30.0795C17.9753 29.3126 17.5553 28.2966 17.5553 27.2171ZM10.4824 8.05966H17.3794C17.6481 8.05966 17.8679 8.27947 17.8679 8.54812C17.8679 8.81677 17.6481 9.03658 17.3794 9.03658H10.4824C10.2137 9.03658 9.9939 8.81677 9.9939 8.54812C9.9939 8.27947 10.2088 8.05966 10.4824 8.05966ZM10.4824 10.2382H13.7111C13.9797 10.2382 14.1995 10.458 14.1995 10.7267C14.1995 10.9953 13.9797 11.2151 13.7111 11.2151H10.4824C10.2137 11.2151 9.9939 10.9953 9.9939 10.7267C9.9939 10.458 10.2088 10.2382 10.4824 10.2382ZM1.88546 8.02058C1.88546 7.52724 2.28599 7.1267 2.77934 7.1267H8.18171C8.67505 7.1267 9.07559 7.52724 9.07559 8.02058V13.6476C9.07559 14.141 8.67505 14.5415 8.18171 14.5415H2.78422C2.29088 14.5415 1.89034 14.141 1.89034 13.6476V8.02058H1.88546ZM4.92856 28.0621C4.92856 28.3601 4.68433 28.6043 4.38637 28.6043H2.42765C2.12969 28.6043 1.88546 28.3601 1.88546 28.0621V26.1034C1.88546 25.8054 2.12969 25.5612 2.42765 25.5612H4.39126C4.68922 25.5612 4.93345 25.8054 4.93345 26.1034V28.0621H4.92856ZM4.92856 23.4022C4.92856 23.7002 4.68433 23.9444 4.38637 23.9444H2.42765C2.12969 23.9444 1.88546 23.7002 1.88546 23.4022V21.4435C1.88546 21.1455 2.12969 20.9013 2.42765 20.9013H4.39126C4.68922 20.9013 4.93345 21.1455 4.93345 21.4435V23.4022H4.92856ZM4.92856 18.7472C4.92856 19.0451 4.68433 19.2894 4.38637 19.2894H2.42765C2.12969 19.2894 1.88546 19.0451 1.88546 18.7472V16.7884C1.88546 16.4905 2.12969 16.2463 2.42765 16.2463H4.39126C4.68922 16.2463 4.93345 16.4905 4.93345 16.7884V18.7472H4.92856ZM15.494 27.5785C15.494 27.7739 15.3718 27.9302 15.2253 27.9302H7.13152C6.98498 27.9302 6.86287 27.7739 6.86287 27.5785V26.5821C6.86287 26.3867 6.98498 26.2304 7.13152 26.2304H15.2253C15.3718 26.2304 15.494 26.3867 15.494 26.5821V27.5785ZM15.494 22.9235C15.494 23.1189 15.3718 23.2752 15.2253 23.2752H7.13152C6.98498 23.2752 6.86287 23.1189 6.86287 22.9235V21.927C6.86287 21.7317 6.98498 21.5754 7.13152 21.5754H15.2253C15.3718 21.5754 15.494 21.7317 15.494 21.927V22.9235ZM15.494 18.2636C15.494 18.459 15.3718 18.6153 15.2253 18.6153H7.13152C6.98498 18.6153 6.86287 18.459 6.86287 18.2636V17.2671C6.86287 17.0718 6.98498 16.9154 7.13152 16.9154H15.2253C15.3718 16.9154 15.494 17.0718 15.494 17.2671V18.2636Z" fill="#78C2A5"/>
</g>
</svg>
