<svg width="22" height="32" viewBox="0 0 22 32" fill="none" xmlns="http://www.w3.org/2000/svg">
<g id="Group 36152">
<path id="Vector" d="M10.9999 15.8152C12.5731 15.8152 13.8487 14.5396 13.8487 12.9664C13.8487 11.3932 10.9999 6.78484 10.9999 6.78484C10.9999 6.78484 8.15112 11.3932 8.15112 12.9664C8.15112 14.54 9.42672 15.8152 10.9999 15.8152Z" fill="#246BFD"/>
<path id="Vector_2" d="M19.3 0H2.7C1.2088 0 0 1.2088 0 2.7V24.3C0 25.7912 1.2088 27 2.7 27H9.8752C9.8732 27.0284 9.8668 27.0556 9.8668 27.0844V30.4332C9.8668 31.0592 10.374 31.5664 11 31.5664C11.626 31.5664 12.1332 31.0588 12.1332 30.4332V27.0844C12.1332 27.0556 12.1268 27.0284 12.1248 27H19.3C20.7912 27 22 25.7912 22 24.3V2.7C22 1.2088 20.7912 0 19.3 0ZM9.5252 24.4192C9.5252 24.6572 9.3324 24.85 9.0944 24.85H4.456C4.218 24.85 4.0252 24.6572 4.0252 24.4192V22.5308C4.0252 22.2928 4.218 22.1 4.456 22.1H9.0944C9.3324 22.1 9.5252 22.2928 9.5252 22.5308V24.4192ZM17.9752 24.4192C17.9752 24.6572 17.7824 24.85 17.5444 24.85H12.906C12.668 24.85 12.4752 24.6572 12.4752 24.4192V22.5308C12.4752 22.2928 12.668 22.1 12.906 22.1H17.544C17.782 22.1 17.9748 22.2928 17.9748 22.5308V24.4192H17.9752ZM18.65 19.1252C18.65 19.6084 18.2584 20.0004 17.7748 20.0004H4.2252C3.742 20.0004 3.35 19.6088 3.35 19.1252V3.4752C3.35 2.992 3.7416 2.6 4.2252 2.6H17.7752C18.2584 2.6 18.6504 2.9916 18.6504 3.4752L18.65 19.1252Z" fill="#246BFD"/>
</g>
</svg>
